<svg xmlns="http://www.w3.org/2000/svg" viewBox="0 0 64 64" width="64" height="64">
  <defs>
    <linearGradient id="bg" x1="0" y1="0" x2="1" y2="1">
      <stop offset="0%" stop-color="#0058be"/>
      <stop offset="100%" stop-color="#8127cf"/>
    </linearGradient>
  </defs>
  <!-- Rounded square background -->
  <rect x="2" y="2" width="60" height="60" rx="14" fill="url(#bg)"/>
  <!-- Brain outline (simplified) -->
  <path d="M32 14c-6 0-11 3-13 8-2 5-1 10 2 14 1 2 3 3 4 5v5a2 2 0 002 2h10a2 2 0 002-2v-5c1-2 3-3 4-5 3-4 4-9 2-14-2-5-7-8-13-8z" fill="none" stroke="#fff" stroke-width="2.2" stroke-linecap="round" stroke-linejoin="round"/>
  <!-- Brain folds -->
  <path d="M24 24c3-1 6 0 8 2M32 26c2-2 5-2 8 0M26 32c2-1 5-1 7 1M29 36c2 0 4 1 5 2" fill="none" stroke="#fff" stroke-width="1.6" stroke-linecap="round"/>
  <!-- Peace dove / leaf accent -->
  <path d="M44 40c2-1 4 0 5 2s0 4-2 5" fill="none" stroke="#a12e70" stroke-width="1.8" stroke-linecap="round"/>
  <path d="M46 42c1 1 1 3 0 4" fill="none" stroke="#a12e70" stroke-width="1.4" stroke-linecap="round"/>
</svg>
